<?xml version="1.0" encoding="UTF-8"?>
<!DOCTYPE svg PUBLIC "-//W3C//DTD SVG 1.1//EN" "http://www.w3.org/Graphics/SVG/1.1/DTD/svg11.dtd">
<svg xmlns="http://www.w3.org/2000/svg" version="1.1" width="512px" height="512px" style="shape-rendering:geometricPrecision; text-rendering:geometricPrecision; image-rendering:optimizeQuality; fill-rule:evenodd; clip-rule:evenodd" xmlns:xlink="http://www.w3.org/1999/xlink">
<g><path style="opacity:0.954" fill="#000000" d="M 14.5,7.5 C 41.2278,9.22883 67.8945,11.7288 94.5,15C 109.306,16.2737 123.973,18.2737 138.5,21C 177.713,64.0431 216.713,107.21 255.5,150.5C 294.287,107.21 333.287,64.0431 372.5,21C 411.179,15.554 450.012,11.054 489,7.5C 494.414,6.47278 498.747,8.13945 502,12.5C 503.57,18.0527 503.903,23.7194 503,29.5C 499.333,63.1667 495.667,96.8333 492,130.5C 491.759,133.289 491.092,135.956 490,138.5C 444.971,179.919 399.471,220.752 353.5,261C 360,268.167 366.5,275.333 373,282.5C 378.833,276.667 384.667,270.833 390.5,265C 394.68,262.294 399.013,261.961 403.5,264C 440.577,292.487 441.91,322.487 407.5,354C 425.167,371.667 442.833,389.333 460.5,407C 463.43,406.561 466.43,406.061 469.5,405.5C 471.923,405.594 474.256,406.094 476.5,407C 483.698,413.864 490.532,421.03 497,428.5C 504.023,441.577 505.356,455.244 501,469.5C 493.833,483.333 483.333,493.833 469.5,501C 453.834,505.899 439.167,503.899 425.5,495C 419.333,488.833 413.167,482.667 407,476.5C 406.094,474.256 405.594,471.923 405.5,469.5C 406.061,466.43 406.561,463.43 407,460.5C 389.333,442.833 371.667,425.167 354,407.5C 323.689,441.308 294.023,440.642 265,405.5C 261.667,400.5 261.667,395.5 265,390.5C 270.833,384.667 276.667,378.833 282.5,373C 273.874,364.695 264.874,356.861 255.5,349.5C 246.126,356.861 237.126,364.695 228.5,373C 234.333,378.833 240.167,384.667 246,390.5C 249.232,395.468 249.232,400.468 246,405.5C 216.963,440.644 187.296,441.311 157,407.5C 139.333,425.167 121.667,442.833 104,460.5C 104.439,463.43 104.939,466.43 105.5,469.5C 105.406,471.923 104.906,474.256 104,476.5C 97.1362,483.698 89.9695,490.532 82.5,497C 69.423,504.023 55.7564,505.356 41.5,501C 27.6667,493.833 17.1667,483.333 10,469.5C 5.10087,453.834 7.10087,439.167 16,425.5C 22.1667,419.333 28.3333,413.167 34.5,407C 36.7438,406.094 39.0772,405.594 41.5,405.5C 44.5703,406.061 47.5703,406.561 50.5,407C 68.1667,389.333 85.8333,371.667 103.5,354C 69.09,322.487 70.4233,292.487 107.5,264C 111.987,261.961 116.32,262.294 120.5,265C 126.333,270.833 132.167,276.667 138,282.5C 144.5,275.333 151,268.167 157.5,261C 111.906,220.284 66.4057,179.45 21,138.5C 15.554,99.8209 11.054,60.9875 7.5,22C 6.51836,15.4652 8.85169,10.6318 14.5,7.5 Z M 33.5,33.5 C 64.1916,36.7435 94.8583,40.2435 125.5,44C 163.537,85.7019 201.204,127.702 238.5,170C 230.607,178.969 222.607,187.802 214.5,196.5C 201.014,183.514 187.681,170.347 174.5,157C 163.648,152.753 157.314,156.253 155.5,167.5C 155.478,169.965 155.978,172.298 157,174.5C 170.681,188.014 184.181,201.681 197.5,215.5C 189.48,224.352 181.647,233.352 174,242.5C 130.855,203.266 87.5221,164.266 44,125.5C 40.389,94.834 36.889,64.1673 33.5,33.5 Z M 474.5,33.5 C 475.5,33.5 476.5,33.5 477.5,33.5C 474.111,64.1673 470.611,94.834 467,125.5C 381.947,202.39 296.447,278.723 210.5,354.5C 203.628,348.808 197.795,342.475 193,335.5C 246.667,281.833 300.333,228.167 354,174.5C 357.383,166.654 355.549,160.487 348.5,156C 344.375,155.146 340.375,155.48 336.5,157C 282.833,210.667 229.167,264.333 175.5,318C 174.833,318.667 174.167,318.667 173.5,318C 168,312.5 162.5,307 157,301.5C 157.044,299.721 157.711,298.055 159,296.5C 234.5,212.333 310,128.167 385.5,44C 415.32,40.595 444.987,37.095 474.5,33.5 Z M 334.5,277.5 C 341.385,284.908 348.052,292.574 354.5,300.5C 348.833,306.833 342.833,312.833 336.5,318.5C 328.833,311.5 321.5,304.167 314.5,296.5C 321.187,290.145 327.854,283.812 334.5,277.5 Z M 112.5,293.5 C 147.632,328.132 182.632,362.965 217.5,398C 209.218,408.158 199.551,409.825 188.5,403C 161.667,376.167 134.833,349.333 108,322.5C 101.304,311.607 102.804,301.94 112.5,293.5 Z M 397.5,293.5 C 408.086,301.512 409.92,311.178 403,322.5C 376.167,349.333 349.333,376.167 322.5,403C 311.396,410.079 301.729,408.412 293.5,398C 328.368,363.299 363.035,328.465 397.5,293.5 Z M 294.5,313.5 C 303.092,320.422 311.092,328.089 318.5,336.5C 312.833,342.833 306.833,348.833 300.5,354.5C 291.647,347.236 282.98,339.736 274.5,332C 281.363,325.967 288.03,319.801 294.5,313.5 Z M 120.5,372.5 C 127.09,377.419 133.09,383.086 138.5,389.5C 120.847,407.653 103.014,425.653 85,443.5C 79.1667,437.667 73.3333,431.833 67.5,426C 85.3684,408.299 103.035,390.465 120.5,372.5 Z M 388.5,372.5 C 407.248,389.746 425.582,407.58 443.5,426C 437.667,431.833 431.833,437.667 426,443.5C 408.333,425.833 390.667,408.167 373,390.5C 372.333,389.833 372.333,389.167 373,388.5C 378.37,383.298 383.536,377.965 388.5,372.5 Z M 40.5,436.5 C 52.0801,446.577 63.2467,457.243 74,468.5C 73.1069,471.436 71.2736,473.936 68.5,476C 62.1775,479.552 55.8441,479.886 49.5,477C 42.5469,472.052 37.0469,465.885 33,458.5C 31.0339,449.563 33.5339,442.23 40.5,436.5 Z M 468.5,436.5 C 478.155,442.293 480.988,450.627 477,461.5C 471.203,470.655 463.203,476.655 453,479.5C 446.364,478.848 441.031,475.848 437,470.5C 436.333,469.833 436.333,469.167 437,468.5C 447.702,457.965 458.202,447.298 468.5,436.5 Z"/></g>
</svg>
