<?xml version="1.0" encoding="UTF-8"?>
<!DOCTYPE svg PUBLIC "-//W3C//DTD SVG 1.1//EN" "http://www.w3.org/Graphics/SVG/1.1/DTD/svg11.dtd">
<svg xmlns="http://www.w3.org/2000/svg" version="1.1" width="512px" height="512px" style="shape-rendering:geometricPrecision; text-rendering:geometricPrecision; image-rendering:optimizeQuality; fill-rule:evenodd; clip-rule:evenodd" xmlns:xlink="http://www.w3.org/1999/xlink">
<g><path style="opacity:0.94" fill="#000000" d="M -0.5,373.5 C -0.5,362.167 -0.5,350.833 -0.5,339.5C 3.62928,323.443 13.296,311.943 28.5,305C 41.8333,298.333 55.1667,291.667 68.5,285C 71.5276,281.277 72.1942,277.111 70.5,272.5C 52.4328,261.077 41.2662,244.743 37,223.5C 31.5661,200.136 34.2328,177.803 45,156.5C 62.1217,132.891 85.2883,123.057 114.5,127C 147.772,133.608 166.606,153.774 171,187.5C 174.363,216.063 166.863,241.23 148.5,263C 144.521,266.656 140.188,269.822 135.5,272.5C 133.806,277.111 134.472,281.277 137.5,285C 153.989,293.078 170.323,301.411 186.5,310C 201.766,321.709 208.433,337.209 206.5,356.5C 206.333,362.167 206.167,367.833 206,373.5C 203.833,378.333 200.333,381.833 195.5,384C 152.167,384.667 108.833,384.667 65.5,384C 60.1667,379.333 60.1667,374.667 65.5,370C 106.5,369.667 147.5,369.333 188.5,369C 189.667,368.5 190.5,367.667 191,366.5C 191.895,357.053 191.229,347.719 189,338.5C 186.131,332.248 181.964,327.081 176.5,323C 163.043,316.369 149.71,309.535 136.5,302.5C 122.061,313.021 106.061,316.188 88.5,312C 81.6088,309.888 75.2755,306.721 69.5,302.5C 56.2903,309.535 42.957,316.369 29.5,323C 17.9824,331.718 12.9824,343.384 14.5,358C 14.5413,361.221 14.8747,364.388 15.5,367.5C 16.0253,368.192 16.6919,368.692 17.5,369C 24.5,369.333 31.5,369.667 38.5,370C 43.8333,374.667 43.8333,379.333 38.5,384C 29.1667,384.667 19.8333,384.667 10.5,384C 5.64549,381.643 1.97883,378.143 -0.5,373.5 Z M 102.5,141.5 C 136.749,144.958 154.416,163.958 155.5,198.5C 155.808,215.611 151.308,231.278 142,245.5C 126.364,263.203 107.197,268.37 84.5,261C 68.5874,253.745 58.4208,241.578 54,224.5C 49.4221,208.143 49.4221,191.809 54,175.5C 63.3499,154.411 79.5166,143.078 102.5,141.5 Z M 87.5,278.5 C 97.5021,281.093 107.502,281.093 117.5,278.5C 117.892,283.515 119.559,288.015 122.5,292C 111.685,298.078 100.352,299.078 88.5,295C 86.6675,294.252 85.0009,293.252 83.5,292C 86.7413,288.106 88.0747,283.606 87.5,278.5 Z"/></g>
<g><path style="opacity:0.951" fill="#000000" d="M 511.5,339.5 C 511.5,350.833 511.5,362.167 511.5,373.5C 509.021,378.143 505.355,381.643 500.5,384C 438.833,384.667 377.167,384.667 315.5,384C 310.667,381.833 307.167,378.333 305,373.5C 304.08,360.776 304.414,348.11 306,335.5C 309.493,325.015 315.66,316.515 324.5,310C 341.167,301.333 357.833,292.667 374.5,284C 363.5,283.667 352.5,283.333 341.5,283C 333.409,281.241 328.242,276.408 326,268.5C 325.333,225.833 325.333,183.167 326,140.5C 328.5,134 333,129.5 339.5,127C 367.833,126.333 396.167,126.333 424.5,127C 428.5,131.667 428.5,136.333 424.5,141C 398.5,141.333 372.5,141.667 346.5,142C 344.671,142.273 343.171,143.107 342,144.5C 341.333,184.833 341.333,225.167 342,265.5C 342.75,266.126 343.584,266.626 344.5,267C 387.584,267.989 430.584,267.656 473.5,266C 474.663,225.571 474.83,185.071 474,144.5C 472.829,143.107 471.329,142.273 469.5,142C 463.167,141.667 456.833,141.333 450.5,141C 446.5,136.333 446.5,131.667 450.5,127C 460.242,126.08 469.908,126.413 479.5,128C 484.473,130.969 487.973,135.136 490,140.5C 490.667,183.5 490.667,226.5 490,269.5C 487.33,276.835 482.163,281.335 474.5,283C 463.5,283.333 452.5,283.667 441.5,284C 459.818,293.158 477.818,302.825 495.5,313C 503.292,320.428 508.625,329.262 511.5,339.5 Z M 392.5,283.5 C 402.855,283.168 413.188,283.501 423.5,284.5C 424.182,287.366 425.516,289.866 427.5,292C 419.201,297.094 410.201,298.76 400.5,297C 396.072,296.303 392.072,294.637 388.5,292C 390.697,289.579 392.03,286.745 392.5,283.5 Z M 373.5,302.5 C 391.624,314.556 410.957,316.722 431.5,309C 434.968,307.03 438.301,304.864 441.5,302.5C 454.71,309.535 468.043,316.369 481.5,323C 493.018,331.718 498.018,343.384 496.5,358C 496.459,361.221 496.125,364.388 495.5,367.5C 494.975,368.192 494.308,368.692 493.5,369C 436.126,369.829 378.793,369.662 321.5,368.5C 320.808,367.975 320.308,367.308 320,366.5C 319.277,358.458 319.61,350.458 321,342.5C 323.156,334.349 327.656,327.849 334.5,323C 347.877,316.647 360.877,309.814 373.5,302.5 Z"/></g>
<g><path style="opacity:0.935" fill="#000000" d="M 87.5,168.5 C 94.5079,168.334 101.508,168.5 108.5,169C 109.701,169.903 110.535,171.069 111,172.5C 111.667,193.833 111.667,215.167 111,236.5C 109.471,239.516 106.971,240.849 103.5,240.5C 100.675,240.881 98.5087,239.881 97,237.5C 95.5402,219.569 95.0402,201.569 95.5,183.5C 87.3862,184.879 83.5528,181.546 84,173.5C 84.9973,171.677 86.1639,170.01 87.5,168.5 Z"/></g>
<g><path style="opacity:0.899" fill="#000000" d="M 358.5,175.5 C 368.579,176.803 378.245,179.636 387.5,184C 391.277,186.911 392.444,190.744 391,195.5C 389.257,197.871 386.923,199.205 384,199.5C 375.028,196.731 366.195,193.565 357.5,190C 353.268,184.809 353.601,179.975 358.5,175.5 Z"/></g>
<g><path style="opacity:0.899" fill="#000000" d="M 449.5,175.5 C 460.598,175.186 463.598,179.853 458.5,189.5C 449.649,193.228 440.649,196.562 431.5,199.5C 423.397,196.806 421.73,191.972 426.5,185C 434.256,181.781 441.922,178.614 449.5,175.5 Z"/></g>
<g><path style="opacity:0.922" fill="#000000" d="M 190.5,198.5 C 194.426,198.047 197.592,199.38 200,202.5C 205.531,218.092 210.864,233.759 216,249.5C 221.47,233.424 227.136,217.424 233,201.5C 238.441,197.074 243.108,197.741 247,203.5C 247.667,205.833 247.667,208.167 247,210.5C 239,233.167 231,255.833 223,278.5C 218.333,283.833 213.667,283.833 209,278.5C 200.733,254.532 192.566,230.532 184.5,206.5C 185.075,202.651 187.075,199.984 190.5,198.5 Z"/></g>
<g><path style="opacity:0.921" fill="#000000" d="M 277.5,198.5 C 289.803,197.322 300.303,200.988 309,209.5C 310.875,217.619 307.708,221.452 299.5,221C 294.607,217.304 289.107,215.137 283,214.5C 277.755,214.249 274.255,216.582 272.5,221.5C 273.04,222.748 273.707,223.915 274.5,225C 284.91,228.908 294.91,233.575 304.5,239C 312.937,248.431 314.104,258.598 308,269.5C 297.112,280.48 284.278,283.314 269.5,278C 263.179,275.674 258.013,271.84 254,266.5C 251.751,259.761 254.085,255.761 261,254.5C 265.803,257.285 270.636,260.118 275.5,263C 284.748,266.806 291.748,264.473 296.5,256C 295.538,253.406 293.871,251.406 291.5,250C 282.352,246.258 273.352,242.258 264.5,238C 253.48,225.75 254.146,214.084 266.5,203C 270.157,201.178 273.824,199.678 277.5,198.5 Z"/></g>
<g><path style="opacity:0.922" fill="#000000" d="M 383.5,227.5 C 400.17,227.333 416.837,227.5 433.5,228C 438.833,232.667 438.833,237.333 433.5,242C 432.167,242.333 430.833,242.667 429.5,243C 415.167,243.667 400.833,243.667 386.5,243C 378.521,239.271 377.521,234.105 383.5,227.5 Z"/></g>
</svg>
