<?xml version="1.0" encoding="UTF-8"?>
<!DOCTYPE svg PUBLIC "-//W3C//DTD SVG 1.1//EN" "http://www.w3.org/Graphics/SVG/1.1/DTD/svg11.dtd">
<svg xmlns="http://www.w3.org/2000/svg" version="1.1" width="512px" height="512px" style="shape-rendering:geometricPrecision; text-rendering:geometricPrecision; image-rendering:optimizeQuality; fill-rule:evenodd; clip-rule:evenodd" xmlns:xlink="http://www.w3.org/1999/xlink">
<g><path style="opacity:0.97" fill="#111111" d="M 129.5,-0.5 C 134.167,-0.5 138.833,-0.5 143.5,-0.5C 149.48,1.98203 153.647,6.31536 156,12.5C 164.746,50.8969 173.746,89.2302 183,127.5C 186.062,129.13 187.729,128.13 188,124.5C 197,87.1667 206,49.8333 215,12.5C 217.353,6.31536 221.52,1.98203 227.5,-0.5C 232.167,-0.5 236.833,-0.5 241.5,-0.5C 252.619,5.07991 256.786,14.0799 254,26.5C 245,63.8333 236,101.167 227,138.5C 216.97,163.935 198.47,173.768 171.5,168C 156.931,163.097 147.431,153.264 143,138.5C 134.333,101.167 125.667,63.8333 117,26.5C 114.214,14.0799 118.381,5.07991 129.5,-0.5 Z"/></g>
<g><path style="opacity:0.969" fill="#111111" d="M 320.5,-0.5 C 329.5,-0.5 338.5,-0.5 347.5,-0.5C 360.509,1.77706 373.175,5.6104 385.5,11C 397.679,23.0613 397.346,34.7279 384.5,46C 381.246,47.842 377.746,48.6754 374,48.5C 363.859,46.0109 353.692,43.5109 343.5,41C 337.833,40.3333 332.167,40.3333 326.5,41C 315.521,48.5819 315.854,55.5819 327.5,62C 337.857,63.5022 348.191,65.1689 358.5,67C 391.008,80.1824 402.508,103.682 393,137.5C 382.376,158.611 365.21,169.278 341.5,169.5C 320.707,169.044 301.041,164.21 282.5,155C 276.798,148.555 274.964,141.055 277,132.5C 280.821,124.188 287.321,119.522 296.5,118.5C 305.109,121.091 313.776,123.591 322.5,126C 331.477,128.645 340.477,128.978 349.5,127C 355.388,123.153 356.888,117.987 354,111.5C 351.592,109.044 348.759,107.211 345.5,106C 320.424,107.206 300.258,98.0393 285,78.5C 272.952,53.8292 276.452,31.6625 295.5,12C 303.1,6.20015 311.433,2.03348 320.5,-0.5 Z"/></g>
<g><path style="opacity:0.973" fill="#111111" d="M 107.5,195.5 C 144.999,192.16 172.166,207.16 189,240.5C 201.829,277.667 192.996,308.5 162.5,333C 139.331,346.926 114.998,349.26 89.5,340C 53.8383,321.51 39.3383,292.343 46,252.5C 55.518,221.477 76.018,202.477 107.5,195.5 Z M 111.5,236.5 C 132.477,234.007 146.31,242.674 153,262.5C 155.984,283.495 147.484,297.328 127.5,304C 106.505,306.984 92.6722,298.484 86,278.5C 83.2271,257.478 91.7271,243.478 111.5,236.5 Z"/></g>
<g><path style="opacity:0.973" fill="#111111" d="M 383.5,195.5 C 420.999,192.16 448.166,207.16 465,240.5C 477.826,277.675 468.993,308.508 438.5,333C 415.331,346.926 390.998,349.26 365.5,340C 329.838,321.51 315.338,292.343 322,252.5C 331.518,221.477 352.018,202.477 383.5,195.5 Z M 387.5,236.5 C 408.477,234.007 422.31,242.674 429,262.5C 431.984,283.495 423.484,297.328 403.5,304C 382.505,306.984 368.672,298.484 362,278.5C 359.227,257.478 367.727,243.478 387.5,236.5 Z"/></g>
<g><path style="opacity:0.97" fill="#111111" d="M 222.5,511.5 C 217.833,511.5 213.167,511.5 208.5,511.5C 202.52,509.018 198.353,504.685 196,498.5C 193.398,448.731 167.231,423.064 117.5,421.5C 67.7686,423.064 41.6019,448.731 39,498.5C 36.6469,504.685 32.4802,509.018 26.5,511.5C 21.8333,511.5 17.1667,511.5 12.5,511.5C 10.2314,510.024 7.89805,508.524 5.5,507C 3.24806,504.264 1.24806,501.431 -0.5,498.5C -0.5,491.167 -0.5,483.833 -0.5,476.5C 9.98723,423.846 41.6539,392.346 94.5,382C 125.959,376.981 155.626,381.981 183.5,397C 219.62,421.072 236.787,454.906 235,498.5C 232.647,504.685 228.48,509.018 222.5,511.5 Z"/></g>
<g><path style="opacity:0.97" fill="#111111" d="M 511.5,476.5 C 511.5,483.833 511.5,491.167 511.5,498.5C 510.024,500.769 508.524,503.102 507,505.5C 504.264,507.752 501.431,509.752 498.5,511.5C 493.833,511.5 489.167,511.5 484.5,511.5C 478.52,509.018 474.353,504.685 472,498.5C 469.398,448.731 443.231,423.064 393.5,421.5C 343.769,423.064 317.602,448.731 315,498.5C 312.647,504.685 308.48,509.018 302.5,511.5C 297.833,511.5 293.167,511.5 288.5,511.5C 282.52,509.018 278.353,504.685 276,498.5C 274.713,447.226 297.213,410.726 343.5,389C 352.217,385.571 361.217,383.237 370.5,382C 387.872,381.088 405.206,381.421 422.5,383C 472.216,395.213 501.882,426.38 511.5,476.5 Z"/></g>
</svg>
