<?xml version="1.0" encoding="UTF-8"?>
<!DOCTYPE svg PUBLIC "-//W3C//DTD SVG 1.1//EN" "http://www.w3.org/Graphics/SVG/1.1/DTD/svg11.dtd">
<svg xmlns="http://www.w3.org/2000/svg" version="1.1" width="512px" height="512px" style="shape-rendering:geometricPrecision; text-rendering:geometricPrecision; image-rendering:optimizeQuality; fill-rule:evenodd; clip-rule:evenodd" xmlns:xlink="http://www.w3.org/1999/xlink">
<g><path style="opacity:0.961" fill="#040404" d="M 38.5,264.5 C 41.5608,264.444 43.7275,265.778 45,268.5C 45.3333,293.833 45.6667,319.167 46,344.5C 49.9869,367.667 61.8203,385.5 81.5,398C 127.33,424.081 172.997,450.414 218.5,477C 227.816,482.329 237.816,485.496 248.5,486.5C 250.64,486.444 252.306,485.777 253.5,484.5C 253.5,411.5 253.5,338.5 253.5,265.5C 246.929,264.381 240.929,261.881 235.5,258C 175.167,219.833 114.833,181.667 54.5,143.5C 49.6745,149.97 47.0079,157.304 46.5,165.5C 45.668,187.33 45.168,209.33 45,231.5C 43.8359,234.495 41.6692,236.161 38.5,236.5C 35.297,236.318 33.4637,234.652 33,231.5C 32.1005,208.473 32.4338,185.473 34,162.5C 38.74,138.498 50.9067,119.332 70.5,105C 117.167,78 163.833,51 210.5,24C 240.5,7.33333 270.5,7.33333 300.5,24C 347.167,51 393.833,78 440.5,105C 460.486,119.297 472.652,138.463 477,162.5C 478.131,193.477 478.631,224.477 478.5,255.5C 478.333,283.5 478.167,311.5 478,339.5C 474.884,369.59 460.717,392.756 435.5,409C 390.337,434.747 345.337,460.747 300.5,487C 270.5,503.667 240.5,503.667 210.5,487C 165.663,460.747 120.663,434.747 75.5,409C 52.6764,395.148 38.8431,374.981 34,348.5C 32.4182,321.859 32.0849,295.193 33,268.5C 33.8747,265.785 35.7081,264.452 38.5,264.5 Z"/></g>
<g><path style="opacity:1" fill="#f6f4fa" d="M 243.5,24.5 C 261.634,22.6324 278.634,26.1324 294.5,35C 339.337,61.2526 384.337,87.2526 429.5,113C 439.31,118.977 447.31,126.81 453.5,136.5C 393.967,174.531 334.3,212.364 274.5,250C 263.978,254.946 253.645,254.613 243.5,249C 182.125,210.652 121.125,171.819 60.5,132.5C 66.0681,124.431 73.0681,117.931 81.5,113C 126.663,87.2526 171.663,61.2526 216.5,35C 225.178,30.3145 234.178,26.8145 243.5,24.5 Z"/></g>
<g><path style="opacity:1" fill="#050505" d="M 249.5,86.5 C 279.858,87.0207 294.025,102.354 292,132.5C 284.852,154.503 269.685,164.003 246.5,161C 224.448,153.252 215.281,137.752 219,114.5C 223.959,99.3697 234.126,90.0364 249.5,86.5 Z"/></g>
<g><path style="opacity:1" fill="#494f57" d="M 250.5,98.5 C 274.108,99.3963 283.608,111.396 279,134.5C 270.04,149.536 257.54,153.369 241.5,146C 229.922,136.117 227.422,124.284 234,110.5C 238.256,104.737 243.756,100.737 250.5,98.5 Z"/></g>
<g><path style="opacity:1" fill="#f6f4fa" d="M 253.5,484.5 C 214.827,458.005 180.327,426.672 150,390.5C 138.215,375.209 126.715,359.876 115.5,344.5C 112.025,332.866 106.025,322.866 97.5,314.5C 75.0478,271.648 58.2144,226.648 47,179.5C 46.5008,174.845 46.3342,170.179 46.5,165.5C 47.0079,157.304 49.6745,149.97 54.5,143.5C 114.833,181.667 175.167,219.833 235.5,258C 240.929,261.881 246.929,264.381 253.5,265.5C 253.5,338.5 253.5,411.5 253.5,484.5 Z"/></g>
<g><path style="opacity:1" fill="#f5f3f9" d="M 458.5,147.5 C 459.79,148.058 460.623,149.058 461,150.5C 462.802,155.375 464.135,160.375 465,165.5C 465.667,225.167 465.667,284.833 465,344.5C 461.015,367.662 449.182,385.495 429.5,398C 384.337,423.747 339.337,449.747 294.5,476C 285.467,481.173 275.8,484.34 265.5,485.5C 265.5,412.167 265.5,338.833 265.5,265.5C 272.28,264.109 278.613,261.609 284.5,258C 342.674,221.304 400.674,184.47 458.5,147.5 Z"/></g>
<g><path style="opacity:1" fill="#e2e1e6" d="M 46.5,165.5 C 46.3342,170.179 46.5008,174.845 47,179.5C 58.2144,226.648 75.0478,271.648 97.5,314.5C 90.7316,307.118 82.3983,304.285 72.5,306C 63.8223,310.679 59.4889,318.012 59.5,328C 60.5557,349.198 68.8891,366.865 84.5,381C 101.811,391.391 112.978,386.891 118,367.5C 118.971,359.619 118.138,351.952 115.5,344.5C 126.715,359.876 138.215,375.209 150,390.5C 180.327,426.672 214.827,458.005 253.5,484.5C 252.306,485.777 250.64,486.444 248.5,486.5C 237.816,485.496 227.816,482.329 218.5,477C 172.997,450.414 127.33,424.081 81.5,398C 61.8203,385.5 49.9869,367.667 46,344.5C 45.6667,319.167 45.3333,293.833 45,268.5C 43.7275,265.778 41.5608,264.444 38.5,264.5C 38.5,263.167 38.5,261.833 38.5,260.5C 43.9535,259.376 46.2868,256.043 45.5,250.5C 46.5615,244.586 44.2282,241.253 38.5,240.5C 38.5,239.167 38.5,237.833 38.5,236.5C 41.6692,236.161 43.8359,234.495 45,231.5C 45.168,209.33 45.668,187.33 46.5,165.5 Z"/></g>
<g><path style="opacity:1" fill="#060405" d="M 430.5,190.5 C 446.241,190.577 453.908,198.577 453.5,214.5C 452.639,235.052 444.639,252.218 429.5,266C 407.954,277.393 396.621,270.893 395.5,246.5C 396.529,225.942 404.863,209.109 420.5,196C 423.767,193.87 427.1,192.037 430.5,190.5 Z"/></g>
<g><path style="opacity:1" fill="#ed7986" d="M 432.5,202.5 C 437.118,201.949 439.951,203.949 441,208.5C 442.419,227.832 435.919,243.999 421.5,257C 418.446,259.208 415.113,260.208 411.5,260C 408.165,256.006 406.832,251.34 407.5,246C 408.791,227.229 417.124,212.729 432.5,202.5 Z"/></g>
<g><path style="opacity:0.913" fill="#050505" d="M 38.5,240.5 C 44.2282,241.253 46.5615,244.586 45.5,250.5C 46.2868,256.043 43.9535,259.376 38.5,260.5C 33.488,259.164 31.488,255.831 32.5,250.5C 32.4526,247.705 32.9526,245.039 34,242.5C 35.1096,240.963 36.6096,240.297 38.5,240.5 Z"/></g>
<g><path style="opacity:1" fill="#050505" d="M 169.5,259.5 C 177.234,258.683 184.234,260.516 190.5,265C 207.613,280.335 215.78,299.501 215,322.5C 212.474,336.339 204.307,342.172 190.5,340C 177.888,333.387 168.721,323.554 163,310.5C 158.046,299.654 156.046,288.32 157,276.5C 158.358,268.658 162.525,262.992 169.5,259.5 Z"/></g>
<g><path style="opacity:1" fill="#060405" d="M 323.5,259.5 C 339.759,259.092 347.759,267.092 347.5,283.5C 346.355,302.282 339.355,318.449 326.5,332C 319.836,338.665 311.836,341.332 302.5,340C 295.744,336.911 291.577,331.745 290,324.5C 288.244,301.435 295.744,281.935 312.5,266C 316.096,263.539 319.763,261.373 323.5,259.5 Z"/></g>
<g><path style="opacity:1" fill="#484e56" d="M 172.5,271.5 C 176.131,271.16 179.464,271.994 182.5,274C 196.579,286.323 203.412,301.823 203,320.5C 201.371,328.929 196.871,330.762 189.5,326C 174.825,313.15 167.992,296.984 169,277.5C 169.926,275.308 171.093,273.308 172.5,271.5 Z"/></g>
<g><path style="opacity:1" fill="#ed7987" d="M 325.5,271.5 C 330.352,270.277 333.519,271.944 335,276.5C 336.478,295.068 330.645,310.902 317.5,324C 305.812,331.984 300.479,328.817 301.5,314.5C 303.027,296.437 311.027,282.103 325.5,271.5 Z"/></g>
<g><path style="opacity:1" fill="#050505" d="M 97.5,314.5 C 106.025,322.866 112.025,332.866 115.5,344.5C 118.138,351.952 118.971,359.619 118,367.5C 112.978,386.891 101.811,391.391 84.5,381C 68.8891,366.865 60.5557,349.198 59.5,328C 59.4889,318.012 63.8223,310.679 72.5,306C 82.3983,304.285 90.7316,307.118 97.5,314.5 Z"/></g>
<g><path style="opacity:1" fill="#060505" d="M 429.5,305.5 C 440.575,303.784 448.075,308.117 452,318.5C 455.39,342.662 448.224,363.162 430.5,380C 423.77,385.464 416.103,387.464 407.5,386C 401.378,382.613 397.545,377.446 396,370.5C 393.999,345.818 402.499,325.651 421.5,310C 424.391,308.726 427.058,307.226 429.5,305.5 Z"/></g>
<g><path style="opacity:1" fill="#3e4347" d="M 75.5,317.5 C 80.9251,317.378 85.5918,319.212 89.5,323C 99.5233,334.052 105.19,347.052 106.5,362C 106.755,374.459 101.755,377.459 91.5,371C 77.9825,358.448 71.4825,342.948 72,324.5C 72.6529,321.861 73.8196,319.527 75.5,317.5 Z"/></g>
<g><path style="opacity:1" fill="#ed7987" d="M 431.5,317.5 C 436.133,316.458 439.299,318.125 441,322.5C 442.734,343.192 435.567,360.025 419.5,373C 413.573,376.186 409.739,374.686 408,368.5C 406.68,347.148 414.513,330.148 431.5,317.5 Z"/></g>
<g><path style="opacity:1" fill="#060505" d="M 322.5,374.5 C 335.158,372.347 343.325,377.347 347,389.5C 348.406,410.281 342.406,428.614 329,444.5C 321.955,452.515 313.122,456.015 302.5,455C 295.744,451.911 291.577,446.745 290,439.5C 287.952,415.763 295.785,395.93 313.5,380C 316.564,378.141 319.564,376.308 322.5,374.5 Z"/></g>
<g><path style="opacity:1" fill="#ed7987" d="M 325.5,386.5 C 330.352,385.277 333.519,386.944 335,391.5C 336.349,408.119 331.682,422.786 321,435.5C 317.006,440.581 311.839,443.081 305.5,443C 302.088,439.211 300.755,434.711 301.5,429.5C 302.759,411.279 310.759,396.946 325.5,386.5 Z"/></g>
</svg>
