<?xml version="1.0" encoding="UTF-8"?>
<!DOCTYPE svg PUBLIC "-//W3C//DTD SVG 1.1//EN" "http://www.w3.org/Graphics/SVG/1.1/DTD/svg11.dtd">
<svg xmlns="http://www.w3.org/2000/svg" version="1.1" width="512px" height="512px" style="shape-rendering:geometricPrecision; text-rendering:geometricPrecision; image-rendering:optimizeQuality; fill-rule:evenodd; clip-rule:evenodd" xmlns:xlink="http://www.w3.org/1999/xlink">
<g><path style="opacity:0.954" fill="#000000" d="M 192.5,-0.5 C 200.5,-0.5 208.5,-0.5 216.5,-0.5C 251.335,8.6844 270.335,31.3511 273.5,67.5C 272.203,93.1098 260.87,112.776 239.5,126.5C 238.167,136.5 238.167,146.5 239.5,156.5C 261.599,148.028 277.766,154.362 288,175.5C 304.439,166.184 319.439,168.184 333,181.5C 335.777,184.718 337.777,188.385 339,192.5C 356.711,182.908 372.378,185.575 386,200.5C 388.106,203.608 389.772,206.941 391,210.5C 392.646,265.796 392.979,321.13 392,376.5C 386.667,392.5 381.333,408.5 376,424.5C 375.5,442.164 375.333,459.83 375.5,477.5C 369.5,477.5 363.5,477.5 357.5,477.5C 357.333,458.83 357.5,440.164 358,421.5C 363.333,405.5 368.667,389.5 374,373.5C 374.667,321.5 374.667,269.5 374,217.5C 369.165,206.165 360.998,202.665 349.5,207C 345.806,209.687 343.306,213.187 342,217.5C 341.5,236.164 341.333,254.83 341.5,273.5C 335.5,273.5 329.5,273.5 323.5,273.5C 323.667,249.498 323.5,225.498 323,201.5C 320.788,193.29 315.455,188.623 307,187.5C 299.219,188.376 293.885,192.376 291,199.5C 290.5,224.164 290.333,248.831 290.5,273.5C 284.5,273.5 278.5,273.5 272.5,273.5C 272.667,244.498 272.5,215.498 272,186.5C 270.627,176.961 265.127,171.627 255.5,170.5C 245.873,171.627 240.373,176.961 239,186.5C 238.5,215.498 238.333,244.498 238.5,273.5C 232.5,273.5 226.5,273.5 220.5,273.5C 220.667,208.832 220.5,144.166 220,79.5C 214.538,68.9016 206.372,66.0683 195.5,71C 191.388,73.779 188.888,77.6124 188,82.5C 187.833,164.835 187.333,247.169 186.5,329.5C 179.39,324.191 172.557,318.524 166,312.5C 155.333,291.167 144.667,269.833 134,248.5C 125.022,236.631 115.355,235.964 105,246.5C 102.185,251.683 101.852,257.016 104,262.5C 115.667,285.833 127.333,309.167 139,332.5C 162.921,353.091 187.421,372.925 212.5,392C 215.333,394.833 218.167,397.667 221,400.5C 221.5,426.165 221.667,451.831 221.5,477.5C 215.5,477.5 209.5,477.5 203.5,477.5C 203.667,454.498 203.5,431.498 203,408.5C 179.833,390 156.667,371.5 133.5,353C 130.667,350.167 127.833,347.333 125,344.5C 112.078,319.656 99.4111,294.656 87,269.5C 80.2717,248.332 86.7717,232.832 106.5,223C 122.459,218.198 135.959,222.031 147,234.5C 154.589,248.677 161.922,263.01 169,277.5C 169.667,227.167 169.667,176.833 169,126.5C 144.946,110.723 133.946,88.39 136,59.5C 141.699,26.9715 160.532,6.97151 192.5,-0.5 Z"/></g>
</svg>
