<?xml version="1.0" encoding="UTF-8"?>
<!DOCTYPE svg PUBLIC "-//W3C//DTD SVG 1.1//EN" "http://www.w3.org/Graphics/SVG/1.1/DTD/svg11.dtd">
<svg xmlns="http://www.w3.org/2000/svg" version="1.1" width="512px" height="512px" style="shape-rendering:geometricPrecision; text-rendering:geometricPrecision; image-rendering:optimizeQuality; fill-rule:evenodd; clip-rule:evenodd" xmlns:xlink="http://www.w3.org/1999/xlink">
<g><path style="opacity:0.967" fill="#eee" d="M 246.5,15.5 C 258.897,13.9287 270.564,16.0954 281.5,22C 347.833,66.3333 414.167,110.667 480.5,155C 488.64,162.441 493.806,171.608 496,182.5C 496.667,198.5 496.667,214.5 496,230.5C 489.963,240.744 481.463,243.244 470.5,238C 466.675,235.512 464.508,232.012 464,227.5C 463.667,214.167 463.333,200.833 463,187.5C 461.93,184.758 460.43,182.258 458.5,180C 393.328,136.915 328.328,93.5814 263.5,50C 259.259,48.5427 254.926,48.2093 250.5,49C 183.742,93.1281 117.242,137.628 51,182.5C 50.3333,183.833 49.6667,185.167 49,186.5C 48.3333,275.5 48.3333,364.5 49,453.5C 50.9268,458.428 54.4268,461.594 59.5,463C 140.833,463.5 222.166,463.667 303.5,463.5C 303.667,425.165 303.5,386.832 303,348.5C 301.167,342.667 297.333,338.833 291.5,337C 267.833,336.333 244.167,336.333 220.5,337C 214.764,338.402 210.931,341.902 209,347.5C 208.972,372.896 208.306,398.229 207,423.5C 203.955,430.026 198.788,433.026 191.5,432.5C 183.973,432.82 178.807,429.487 176,422.5C 175.333,396.167 175.333,369.833 176,343.5C 180.544,323.955 192.378,311.122 211.5,305C 226.123,303.876 240.79,303.376 255.5,303.5C 268.5,303.667 281.5,303.833 294.5,304C 317.673,308.506 331.506,322.339 336,345.5C 336.5,384.832 336.667,424.165 336.5,463.5C 375.168,463.667 413.835,463.5 452.5,463C 458,461.5 461.5,458 463,452.5C 463.333,396.167 463.667,339.833 464,283.5C 466.356,275.234 471.856,271.234 480.5,271.5C 488.027,271.18 493.193,274.513 496,281.5C 496.667,339.833 496.667,398.167 496,456.5C 491.5,478.333 478.333,491.5 456.5,496C 322.833,496.667 189.167,496.667 55.5,496C 34.553,491.72 21.3863,479.22 16,458.5C 15.3333,366.167 15.3333,273.833 16,181.5C 18.8821,168.628 25.7154,158.462 36.5,151C 101.167,108 165.833,65 230.5,22C 235.607,18.9354 240.94,16.7688 246.5,15.5 Z"/></g>
</svg>
