<?xml version="1.0" encoding="UTF-8"?>
<!DOCTYPE svg PUBLIC "-//W3C//DTD SVG 1.1//EN" "http://www.w3.org/Graphics/SVG/1.1/DTD/svg11.dtd">
<svg xmlns="http://www.w3.org/2000/svg" version="1.1" width="512px" height="512px" style="shape-rendering:geometricPrecision; text-rendering:geometricPrecision; image-rendering:optimizeQuality; fill-rule:evenodd; clip-rule:evenodd" xmlns:xlink="http://www.w3.org/1999/xlink">
<g><path style="opacity:0.977" fill="#000000" d="M 85.5,47.5 C 120.168,47.3333 154.835,47.5 189.5,48C 212.337,54.1705 225.17,69.0038 228,92.5C 228.667,122.5 228.667,152.5 228,182.5C 226.012,201.488 216.512,215.322 199.5,224C 193.774,226.575 187.774,227.909 181.5,228C 152.167,228.667 122.833,228.667 93.5,228C 69.4696,225.636 54.303,212.803 48,189.5C 47.3333,154.833 47.3333,120.167 48,85.5C 53.3754,65.6255 65.8754,52.9588 85.5,47.5 Z M 95.5,79.5 C 123.502,79.3334 151.502,79.5 179.5,80C 187.77,80.9367 192.937,85.4367 195,93.5C 195.667,122.833 195.667,152.167 195,181.5C 193.833,189.333 189.333,193.833 181.5,195C 152.167,195.667 122.833,195.667 93.5,195C 85.6667,193.833 81.1667,189.333 80,181.5C 79.3333,152.5 79.3333,123.5 80,94.5C 81.7867,85.8781 86.9534,80.8781 95.5,79.5 Z"/></g>
<g><path style="opacity:0.963" fill="#000000" d="M 348.5,47.5 C 363.716,45.2202 377.382,48.7202 389.5,58C 410.667,79.1667 431.833,100.333 453,121.5C 464.241,137.194 466.574,154.194 460,172.5C 457.73,177.098 455.063,181.431 452,185.5C 430.472,207.362 408.639,228.862 386.5,250C 366.974,261.61 347.641,261.277 328.5,249C 306.333,226.833 284.167,204.667 262,182.5C 248.834,161.346 249.5,140.68 264,120.5C 284.833,99.6667 305.667,78.8333 326.5,58C 333.281,53.1074 340.614,49.6074 348.5,47.5 Z M 355.5,79.5 C 359.813,79.5483 363.813,80.715 367.5,83C 387.667,103.167 407.833,123.333 428,143.5C 432.815,150.424 432.482,157.091 427,163.5C 407.5,183 388,202.5 368.5,222C 362.377,226.161 356.043,226.495 349.5,223C 329,202.5 308.5,182 288,161.5C 284.505,154.957 284.839,148.623 289,142.5C 308.5,123 328,103.5 347.5,84C 350.099,82.205 352.766,80.705 355.5,79.5 Z"/></g>
<g><path style="opacity:0.977" fill="#000000" d="M 91.5,266.5 C 124.532,266.051 157.532,266.551 190.5,268C 212.787,274.618 225.287,289.452 228,312.5C 228.667,347.833 228.667,383.167 228,418.5C 225.178,441.989 212.345,456.822 189.5,463C 154.833,463.667 120.167,463.667 85.5,463C 65.6667,457.833 53.1667,445.333 48,425.5C 47.3333,385.5 47.3333,345.5 48,305.5C 54.2273,283.099 68.7273,270.099 91.5,266.5 Z M 93.5,299.5 C 122.835,299.333 152.169,299.5 181.5,300C 189.333,301.167 193.833,305.667 195,313.5C 195.667,348.167 195.667,382.833 195,417.5C 192.937,425.563 187.77,430.063 179.5,431C 151.5,431.667 123.5,431.667 95.5,431C 87.2299,430.063 82.0633,425.563 80,417.5C 79.3333,382.833 79.3333,348.167 80,313.5C 81.3467,305.655 85.8467,300.988 93.5,299.5 Z"/></g>
<g><path style="opacity:0.973" fill="#000000" d="M 308.5,282.5 C 346.501,282.333 384.501,282.5 422.5,283C 442.256,287.097 455.423,298.597 462,317.5C 463.03,321.773 463.697,326.106 464,330.5C 464.93,362.192 464.597,393.858 463,425.5C 457.86,445.307 445.36,457.807 425.5,463C 385.167,463.667 344.833,463.667 304.5,463C 284.218,457.719 271.718,444.885 267,424.5C 266.333,390.167 266.333,355.833 267,321.5C 272.987,300.009 286.821,287.009 308.5,282.5 Z M 311.5,315.5 C 347.502,315.333 383.502,315.5 419.5,316C 427.098,318.359 430.931,323.526 431,331.5C 431.667,359.5 431.667,387.5 431,415.5C 429.861,424.639 424.694,429.806 415.5,431C 381.833,431.667 348.167,431.667 314.5,431C 307.434,430.553 302.601,427.053 300,420.5C 299.333,389.167 299.333,357.833 300,326.5C 301.754,320.577 305.588,316.911 311.5,315.5 Z"/></g>
</svg>
