<?xml version="1.0" encoding="UTF-8"?>
<!DOCTYPE svg PUBLIC "-//W3C//DTD SVG 1.1//EN" "http://www.w3.org/Graphics/SVG/1.1/DTD/svg11.dtd">
<svg xmlns="http://www.w3.org/2000/svg" version="1.1" width="512px" height="512px" style="shape-rendering:geometricPrecision; text-rendering:geometricPrecision; image-rendering:optimizeQuality; fill-rule:evenodd; clip-rule:evenodd" xmlns:xlink="http://www.w3.org/1999/xlink">
<g><path style="opacity:0.998" fill="#99d2bc" d="M 87.5,63.5 C 125.168,63.3333 162.835,63.5 200.5,64C 215.329,68.8273 223.495,78.994 225,94.5C 225.667,127.5 225.667,160.5 225,193.5C 223.167,212.667 212.667,223.167 193.5,225C 160.5,225.667 127.5,225.667 94.5,225C 78.994,223.495 68.8273,215.329 64,200.5C 63.3333,162.833 63.3333,125.167 64,87.5C 68.0179,75.6498 75.8512,67.6498 87.5,63.5 Z"/></g>
<g><path style="opacity:0.999" fill="#f2eac2" d="M 310.5,63.5 C 348.168,63.3333 385.835,63.5 423.5,64C 435.333,67.8333 443.167,75.6667 447,87.5C 447.667,125.167 447.667,162.833 447,200.5C 442.173,215.329 432.006,223.495 416.5,225C 383.5,225.667 350.5,225.667 317.5,225C 298.333,223.167 287.833,212.667 286,193.5C 285.333,160.5 285.333,127.5 286,94.5C 287.734,78.9468 295.901,68.6135 310.5,63.5 Z"/></g>
<g><path style="opacity:0.998" fill="#f4b460" d="M 94.5,285.5 C 127.502,285.333 160.502,285.5 193.5,286C 212.667,287.833 223.167,298.333 225,317.5C 225.667,350.5 225.667,383.5 225,416.5C 223.495,432.006 215.329,442.173 200.5,447C 162.833,447.667 125.167,447.667 87.5,447C 75.6667,443.167 67.8333,435.333 64,423.5C 63.3333,385.833 63.3333,348.167 64,310.5C 68.991,295.661 79.1576,287.328 94.5,285.5 Z"/></g>
<g><path style="opacity:0.998" fill="#ec514b" d="M 317.5,285.5 C 350.502,285.333 383.502,285.5 416.5,286C 432.006,287.505 442.173,295.671 447,310.5C 447.667,348.167 447.667,385.833 447,423.5C 443.167,435.333 435.333,443.167 423.5,447C 385.833,447.667 348.167,447.667 310.5,447C 295.671,442.173 287.505,432.006 286,416.5C 285.047,381.137 285.381,345.804 287,310.5C 291.936,295.726 302.103,287.393 317.5,285.5 Z"/></g>
</svg>
