<?xml version="1.0" encoding="UTF-8"?>
<!DOCTYPE svg PUBLIC "-//W3C//DTD SVG 1.1//EN" "http://www.w3.org/Graphics/SVG/1.1/DTD/svg11.dtd">
<svg xmlns="http://www.w3.org/2000/svg" version="1.1" width="512px" height="512px" style="shape-rendering:geometricPrecision; text-rendering:geometricPrecision; image-rendering:optimizeQuality; fill-rule:evenodd; clip-rule:evenodd" xmlns:xlink="http://www.w3.org/1999/xlink">
<g><path style="opacity:0.921" fill="#222222" d="M 3.5,-0.5 C 27.5,-0.5 51.5,-0.5 75.5,-0.5C 76.8014,0.639972 77.9681,1.97331 79,3.5C 104,53.5 129,103.5 154,153.5C 205.368,102.299 256.535,50.9654 307.5,-0.5C 337.167,-0.5 366.833,-0.5 396.5,-0.5C 400.303,3.97181 400.803,8.63848 398,13.5C 312.5,99 227,184.5 141.5,270C 136.637,272.329 132.137,271.829 128,268.5C 85.3922,182.951 42.5588,97.6173 -0.5,12.5C -0.5,9.16667 -0.5,5.83333 -0.5,2.5C 0.871651,1.48837 2.20498,0.488369 3.5,-0.5 Z M 21.5,15.5 C 36.5148,15.1673 51.5148,15.5007 66.5,16.5C 92.6049,68.3765 118.438,120.376 144,172.5C 148.137,175.829 152.637,176.329 157.5,174C 210.167,121.333 262.833,68.6667 315.5,16C 333.833,15.3333 352.167,15.3333 370.5,16C 293,93.5 215.5,171 138,248.5C 98.644,171.121 59.8106,93.4546 21.5,15.5 Z"/></g>
<g><path style="opacity:0.91" fill="#222222" d="M 499.5,-0.5 C 502.167,-0.5 504.833,-0.5 507.5,-0.5C 508.833,0.833333 510.167,2.16667 511.5,3.5C 511.5,24.8333 511.5,46.1667 511.5,67.5C 423.062,156.438 334.395,245.272 245.5,334C 240.637,336.329 236.137,335.829 232,332.5C 231.667,319.167 231.333,305.833 231,292.5C 217.167,306.333 203.333,320.167 189.5,334C 177.333,337.833 173.167,333.667 177,321.5C 195.833,302.667 214.667,283.833 233.5,265C 238.616,261.898 243.116,262.732 247,267.5C 247.333,280.5 247.667,293.5 248,306.5C 330.333,224.167 412.667,141.833 495,59.5C 495.667,49.1667 495.667,38.8333 495,28.5C 449.167,74.3333 403.333,120.167 357.5,166C 345.333,169.833 341.167,165.667 345,153.5C 396.395,101.938 447.895,50.6049 499.5,-0.5 Z"/></g>
<g><path style="opacity:0.91" fill="#222222" d="M 11.5,511.5 C 8.83333,511.5 6.16667,511.5 3.5,511.5C 2.20498,510.512 0.871651,509.512 -0.5,508.5C -0.5,486.833 -0.5,465.167 -0.5,443.5C 87.9383,354.562 176.605,265.728 265.5,177C 270.616,173.898 275.116,174.732 279,179.5C 279.333,192.5 279.667,205.5 280,218.5C 293.833,204.667 307.667,190.833 321.5,177C 333.667,173.167 337.833,177.333 334,189.5C 314.805,209.029 295.305,228.195 275.5,247C 270.744,248.444 266.911,247.277 264,243.5C 263.667,230.5 263.333,217.5 263,204.5C 180.667,286.833 98.3333,369.167 16,451.5C 15.3333,461.833 15.3333,472.167 16,482.5C 61.8333,436.667 107.667,390.833 153.5,345C 165.667,341.167 169.833,345.333 166,357.5C 114.605,409.062 63.1051,460.395 11.5,511.5 Z"/></g>
<g><path style="opacity:0.987" fill="#222222" d="M 511.5,259.5 C 511.5,262.167 511.5,264.833 511.5,267.5C 494.7,285.133 477.366,302.3 459.5,319C 434.167,319.333 408.833,319.667 383.5,320C 369.656,323.187 365.49,331.354 371,344.5C 372.938,347.106 375.438,348.939 378.5,350C 395.122,351.259 411.789,351.925 428.5,352C 460.991,358.824 482.491,377.991 493,409.5C 501.744,453.508 486.244,485.674 446.5,506C 440.469,508.168 434.469,510.001 428.5,511.5C 371.833,511.5 315.167,511.5 258.5,511.5C 254.697,507.028 254.197,502.362 257,497.5C 273.528,480.638 290.362,464.138 307.5,448C 343.5,447.667 379.5,447.333 415.5,447C 427.343,445.153 432.176,438.32 430,426.5C 427.399,419.947 422.566,416.447 415.5,416C 400.5,415.667 385.5,415.333 370.5,415C 341.481,409.649 320.981,393.482 309,366.5C 296.291,329.498 304.458,297.998 333.5,272C 344.495,263.672 356.828,258.338 370.5,256C 416.5,255.333 462.5,255.333 508.5,256C 509.636,257.145 510.636,258.312 511.5,259.5 Z"/></g>
</svg>
