<?xml version="1.0" encoding="UTF-8"?>
<!DOCTYPE svg PUBLIC "-//W3C//DTD SVG 1.1//EN" "http://www.w3.org/Graphics/SVG/1.1/DTD/svg11.dtd">
<svg xmlns="http://www.w3.org/2000/svg" version="1.1" width="512px" height="512px" style="shape-rendering:geometricPrecision; text-rendering:geometricPrecision; image-rendering:optimizeQuality; fill-rule:evenodd; clip-rule:evenodd" xmlns:xlink="http://www.w3.org/1999/xlink">
<g><path style="opacity:0.992" fill="#fe9738" d="M 206.5,-0.5 C 227.833,-0.5 249.167,-0.5 270.5,-0.5C 210.09,8.73545 166.923,41.0688 141,96.5C 132.253,117.648 128.253,139.648 129,162.5C 133.234,183.565 145.734,196.565 166.5,201.5C 144.831,201.667 123.164,201.5 101.5,201C 82.9169,196.963 71.0835,185.796 66,167.5C 64.4473,95.4175 95.9473,43.5841 160.5,12C 175.455,5.93076 190.788,1.76409 206.5,-0.5 Z"/></g>
<g><path style="opacity:1" fill="#fec244" d="M 270.5,-0.5 C 281.833,-0.5 293.167,-0.5 304.5,-0.5C 260.198,7.62107 224.365,29.6211 197,65.5C 175.801,95.4356 166.135,128.769 168,165.5C 171.524,179.498 179.357,190.164 191.5,197.5C 183.534,200.86 175.201,202.193 166.5,201.5C 145.734,196.565 133.234,183.565 129,162.5C 128.253,139.648 132.253,117.648 141,96.5C 166.923,41.0688 210.09,8.73545 270.5,-0.5 Z"/></g>
<g><path style="opacity:0.993" fill="#ffd05a" d="M 304.5,-0.5 C 304.833,-0.5 305.167,-0.5 305.5,-0.5C 369.016,9.84987 412.85,44.8499 437,104.5C 455.118,163.24 444.785,216.24 406,263.5C 386.009,284.666 362.342,300.333 335,310.5C 333.561,312.275 332.561,314.275 332,316.5C 331.667,325.5 331.333,334.5 331,343.5C 328.829,359.483 320.663,371.15 306.5,378.5C 293.776,371.077 285.943,360.077 283,345.5C 276.824,305.695 287.991,271.862 316.5,244C 321.991,239.754 327.658,235.754 333.5,232C 343.167,227.667 352.833,223.333 362.5,219C 394.446,196.082 403.946,165.916 391,128.5C 372.299,94.5697 343.799,81.2364 305.5,88.5C 290.59,85.2104 275.923,86.0437 261.5,91C 259.273,91.941 257.273,93.1077 255.5,94.5C 238.51,103.66 226.676,117.327 220,135.5C 217.761,148.87 215.428,162.203 213,175.5C 208.339,185.327 201.173,192.66 191.5,197.5C 179.357,190.164 171.524,179.498 168,165.5C 166.135,128.769 175.801,95.4356 197,65.5C 224.365,29.6211 260.198,7.62107 304.5,-0.5 Z"/></g>
<g><path style="opacity:0.993" fill="#fe9738" d="M 305.5,88.5 C 341.668,101.207 359.168,126.874 358,165.5C 354.897,188.902 343.397,206.735 323.5,219C 262.458,241.217 236.291,284.717 245,349.5C 250.196,367.198 261.696,378.198 279.5,382.5C 258.164,382.667 236.831,382.5 215.5,382C 194.548,377.048 182.715,363.881 180,342.5C 175.544,308.225 184.211,277.891 206,251.5C 220.343,236.57 237.51,226.07 257.5,220C 290.044,199.048 300.877,169.881 290,132.5C 282.839,115.841 271.339,103.175 255.5,94.5C 257.273,93.1077 259.273,91.941 261.5,91C 275.923,86.0437 290.59,85.2104 305.5,88.5 Z"/></g>
<g><path style="opacity:1" fill="#fec244" d="M 306.5,378.5 C 297.879,382.022 288.879,383.356 279.5,382.5C 261.696,378.198 250.196,367.198 245,349.5C 236.291,284.717 262.458,241.217 323.5,219C 343.397,206.735 354.897,188.902 358,165.5C 359.168,126.874 341.668,101.207 305.5,88.5C 343.799,81.2364 372.299,94.5697 391,128.5C 403.946,165.916 394.446,196.082 362.5,219C 352.833,223.333 343.167,227.667 333.5,232C 327.658,235.754 321.991,239.754 316.5,244C 287.991,271.862 276.824,305.695 283,345.5C 285.943,360.077 293.776,371.077 306.5,378.5 Z"/></g>
<g><path style="opacity:0.985" fill="#fe9737" d="M 283.5,423.5 C 252.319,431.181 239.819,450.848 246,482.5C 252.128,498.137 263.295,507.804 279.5,511.5C 257.833,511.5 236.167,511.5 214.5,511.5C 185.183,501.12 174.683,480.787 183,450.5C 189.243,437.253 199.41,428.753 213.5,425C 236.795,423.563 260.128,423.063 283.5,423.5 Z"/></g>
<g><path style="opacity:1" fill="#fec244" d="M 283.5,423.5 C 291.689,423.359 299.356,425.025 306.5,428.5C 281.851,444.08 276.018,465.08 289,491.5C 293.779,498.118 299.613,503.452 306.5,507.5C 303.164,509.051 299.831,510.385 296.5,511.5C 290.833,511.5 285.167,511.5 279.5,511.5C 263.295,507.804 252.128,498.137 246,482.5C 239.819,450.848 252.319,431.181 283.5,423.5 Z"/></g>
<g><path style="opacity:0.985" fill="#ffd15a" d="M 306.5,428.5 C 327.9,440.497 335.4,458.497 329,482.5C 324.82,493.845 317.32,502.179 306.5,507.5C 299.613,503.452 293.779,498.118 289,491.5C 276.018,465.08 281.851,444.08 306.5,428.5 Z"/></g>
</svg>
