<?xml version="1.0" encoding="UTF-8"?>
<!DOCTYPE svg PUBLIC "-//W3C//DTD SVG 1.1//EN" "http://www.w3.org/Graphics/SVG/1.1/DTD/svg11.dtd">
<svg xmlns="http://www.w3.org/2000/svg" version="1.1" width="512px" height="512px" style="shape-rendering:geometricPrecision; text-rendering:geometricPrecision; image-rendering:optimizeQuality; fill-rule:evenodd; clip-rule:evenodd" xmlns:xlink="http://www.w3.org/1999/xlink">
<g><path style="opacity:0.976" fill="#2c3d4f" d="M 227.5,39.5 C 230.978,39.1842 234.312,39.6842 237.5,41C 268.693,69.5283 299.859,98.0283 331,126.5C 331.817,129.964 331.483,133.298 330,136.5C 298.595,165.117 267.095,193.617 235.5,222C 230.28,224.468 226.113,223.301 223,218.5C 222.833,203.489 222.333,188.489 221.5,173.5C 177.57,195.74 160.737,231.074 171,279.5C 172.943,285.328 175.276,290.995 178,296.5C 179.202,300.793 178.035,304.293 174.5,307C 157.167,315.667 139.833,324.333 122.5,333C 118.495,334.098 114.995,333.265 112,330.5C 90.0603,285.87 87.727,240.203 105,193.5C 128.04,140.963 167.54,108.296 223.5,95.5C 223.333,78.1635 223.5,60.8301 224,43.5C 224.69,41.6498 225.856,40.3164 227.5,39.5 Z M 239.5,66.5 C 263.296,87.7933 286.963,109.293 310.5,131C 286.906,152.05 263.406,173.216 240,194.5C 239.667,182.833 239.333,171.167 239,159.5C 237.18,153.839 233.347,151.672 227.5,153C 184.12,167.047 158.62,196.547 151,241.5C 148.746,260.055 151.246,277.889 158.5,295C 146.745,301.294 134.912,307.461 123,313.5C 99.2267,251.701 110.06,196.868 155.5,149C 177.471,128.349 203.471,115.682 233.5,111C 235.329,110.727 236.829,109.893 238,108.5C 239.465,94.5979 239.965,80.5979 239.5,66.5 Z"/></g>
<g><path style="opacity:0.977" fill="#2c3d4f" d="M 388.5,177.5 C 391.649,177.211 394.649,177.711 397.5,179C 411.116,202.962 417.783,228.796 417.5,256.5C 415.522,317.647 388.855,364.481 337.5,397C 321.753,405.709 305.086,411.876 287.5,415.5C 287.667,432.837 287.5,450.17 287,467.5C 286.5,469.333 285.333,470.5 283.5,471C 280.833,471.667 278.167,471.667 275.5,471C 242.862,442.753 210.695,413.919 179,384.5C 178.333,381.833 178.333,379.167 179,376.5C 210.816,347.021 242.983,317.854 275.5,289C 280.72,286.532 284.887,287.699 288,292.5C 288.167,307.511 288.667,322.511 289.5,337.5C 332.199,316.102 349.366,281.769 341,234.5C 338.887,227.608 336.22,220.941 333,214.5C 331.798,210.207 332.965,206.707 336.5,204C 354.05,195.392 371.384,186.559 388.5,177.5 Z M 387.5,197.5 C 409.048,249.457 403.548,298.457 371,344.5C 347.212,375.155 316.045,393.655 277.5,400C 275.671,400.273 274.171,401.107 273,402.5C 271.701,416.406 271.034,430.406 271,444.5C 247.624,422.954 224.124,401.62 200.5,380.5C 223.526,358.641 247.026,337.308 271,316.5C 271.333,328.167 271.667,339.833 272,351.5C 273.82,357.161 277.653,359.328 283.5,358C 326.804,343.893 352.304,314.393 360,269.5C 362.254,250.945 359.754,233.111 352.5,216C 364.228,209.804 375.895,203.638 387.5,197.5 Z"/></g>
</svg>
